<svg xmlns="http://www.w3.org/2000/svg" width="148" height="15.967" viewBox="0 0 148 15.967">
            <defs>
                <style>.cls-1 {
                        fill: url(#linear-gradient)
                    }</style>
                <linearGradient id="linear-gradient" x2="1" y1=".5" y2=".5" gradientUnits="objectBoundingBox">
                    <stop offset="0" stop-color="#82e673"/>
                    <stop offset=".5" stop-color="#2c8"/>
                    <stop offset="1" stop-color="#0cb"/>
                </linearGradient>
            </defs>
            <path d="M599.937 868.019c0-3.729 2.507-6 5.669-6a4.731 4.731 0 0 1 4.325 2.208 4.684 4.684 0 0 1 4.3-2.208c3.162 0 5.669 2.267 5.669 6v8.115a1.641 1.641 0 1 1-3.282 0v-8.144c0-1.969-1.1-2.924-2.535-2.924-1.4 0-2.505.955-2.505 2.924v8.144a1.661 1.661 0 0 1-1.641 1.671 1.642 1.642 0 0 1-1.64-1.671v-8.144c0-1.969-1.134-2.924-2.535-2.924s-2.535.955-2.535 2.924v8.144a1.641 1.641 0 1 1-3.282 0zm23.483-4.226a1.935 1.935 0 1 1 .567 1.372 1.939 1.939 0 0 1-.567-1.372zm.3 5.31a1.641 1.641 0 0 1 3.282 0v7.026a1.641 1.641 0 1 1-3.282 0zm7.1-.1c0-4.237 2.834-6.976 6.712-6.976a1.509 1.509 0 0 1 1.522 1.521 1.528 1.528 0 0 1-1.522 1.522c-1.969 0-3.43 1.313-3.43 3.938v7.13a1.641 1.641 0 1 1-3.282 0zm10.293-5.206a1.939 1.939 0 1 1 1.939 1.94 1.94 1.94 0 0 1-1.939-1.94zm.3 5.31a1.641 1.641 0 1 1 3.282 0v7.026a1.641 1.641 0 1 1-3.282 0zm14.079.841a4.684 4.684 0 0 0 4.565 4.832 4.3 4.3 0 0 0 3.142-1.334 2.093 2.093 0 0 1 1.423-.74 1.534 1.534 0 0 1 1.6 1.571 1.719 1.719 0 0 1-.474 1.067 7.389 7.389 0 0 1-5.692 2.461 7.855 7.855 0 0 1 0-15.711 7.508 7.508 0 0 1 5.692 2.4 1.866 1.866 0 0 1 .474 1.126 1.5 1.5 0 0 1-1.6 1.512 1.971 1.971 0 0 1-1.4-.682 4.32 4.32 0 0 0-3.172-1.334 4.668 4.668 0 0 0-4.569 4.832zm28.782-6.195v12.358a1.63 1.63 0 1 1-3.261 0v-.149a7.365 7.365 0 0 1-4.92 1.838 7.863 7.863 0 0 1 0-15.711 7.244 7.244 0 0 1 4.92 1.868v-.207a1.63 1.63 0 0 1 3.261 0zm-3.261 5.988a4.949 4.949 0 1 0 0 .207zm13.723-7.648a6.508 6.508 0 0 0-6.67 6.907v7.115a1.63 1.63 0 1 0 3.261 0v-7.233c0-2.461 1.512-3.764 3.409-3.764s3.409 1.3 3.409 3.764v7.233a1.632 1.632 0 0 0 1.629 1.66 1.652 1.652 0 0 0 1.63-1.661V869a6.508 6.508 0 0 0-6.675-6.9zm22.676.03a1.418 1.418 0 0 0-1.126.534l-7.855 9.368v-8.272a1.63 1.63 0 1 0-3.261 0v12.358a1.633 1.633 0 0 0 1.63 1.66 1.411 1.411 0 0 0 1.216-.563l10.584-12.626a1.594 1.594 0 0 0 .356-.978 1.482 1.482 0 0 0-1.552-1.48zm17.459 1.63v12.358a1.63 1.63 0 1 1-3.261 0v-.149a7.365 7.365 0 0 1-4.921 1.838 7.863 7.863 0 0 1 0-15.711 7.246 7.246 0 0 1 4.921 1.868v-.207a1.63 1.63 0 1 1 3.261 0zm-3.261 5.988a4.952 4.952 0 1 0 0 .207zm12.479-1.037c-1.512-.5-2.757-.889-2.757-2.1a1.595 1.595 0 0 1 1.66-1.6 3.254 3.254 0 0 1 2.371 1.422 1.015 1.015 0 0 0 .949.534 1.468 1.468 0 0 0 1.512-1.452c0-1.868-2.312-3.409-4.832-3.409a4.594 4.594 0 0 0-4.8 4.506c0 3.053 2.1 3.854 3.971 4.506 1.4.474 2.519.949 2.519 2.164a1.635 1.635 0 0 1-1.694 1.6 2.791 2.791 0 0 1-2.342-1.542 1.281 1.281 0 0 0-1.126-.593 1.495 1.495 0 0 0-1.482 1.512c0 1.838 2.312 3.557 4.95 3.557a4.8 4.8 0 0 0 4.95-4.624c0-2.962-2.047-3.911-3.855-4.474z"
                  class="cls-1" transform="translate(-599.937 -861.853)"></path>
        </svg>